<svg id="visual" viewBox="0 0 300 470" width="300" height="470" xmlns="http://www.w3.org/2000/svg" xmlns:xlink="http://www.w3.org/1999/xlink" version="1.1"><rect x="0" y="0" width="300" height="470" fill="#ffffff"></rect><path d="M0 44L10 51.7C20 59.3 40 74.7 60 74.8C80 75 100 60 120 52.2C140 44.3 160 43.7 180 49.5C200 55.3 220 67.7 240 74.3C260 81 280 82 290 82.5L300 83L300 0L290 0C280 0 260 0 240 0C220 0 200 0 180 0C160 0 140 0 120 0C100 0 80 0 60 0C40 0 20 0 10 0L0 0Z" fill="#0066FF" stroke-linecap="round" stroke-linejoin="miter"></path></svg>